<svg width="40" height="40" viewBox="0 0 40 40" fill="none" xmlns="http://www.w3.org/2000/svg">
<path d="M20 0C31.0457 0 40 8.95431 40 20C40 31.0457 31.0457 40 20 40C8.95431 40 0 31.0457 0 20C0 8.95431 8.95431 0 20 0ZM20 30.6752C25.8957 30.6752 30.6752 25.8957 30.6752 20C30.6752 14.1043 25.8957 9.32482 20 9.32482C14.1043 9.32482 9.32482 14.1043 9.32482 20C9.32482 25.8957 14.1043 30.6752 20 30.6752Z" fill="#FFD7BC"/>
<path d="M20 0C23.422 0 26.7868 0.878022 29.7724 2.55008C32.7581 4.22214 35.2648 6.6323 37.0528 9.55003C38.8408 12.4678 39.8502 15.7955 39.9846 19.2148C40.1189 22.6342 39.3737 26.0308 37.8201 29.0798C36.2666 32.1288 33.9567 34.7282 31.1114 36.6294C28.2661 38.5306 24.9806 39.6699 21.5692 39.9383C18.1577 40.2068 14.7345 39.5955 11.6268 38.1629C8.51914 36.7302 5.83105 34.5242 3.81966 31.7557L11.3636 26.2747C12.4372 27.7524 13.872 28.9299 15.5307 29.6946C17.1895 30.4593 19.0167 30.7856 20.8376 30.6423C22.6585 30.499 24.4121 29.8909 25.9308 28.8761C27.4495 27.8613 28.6824 26.4739 29.5117 24.8464C30.3409 23.219 30.7387 21.406 30.667 19.5809C30.5952 17.7558 30.0564 15.9796 29.1021 14.4222C28.1477 12.8649 26.8098 11.5784 25.2161 10.6859C23.6225 9.79347 21.8265 9.32482 20 9.32482L20 0Z" fill="#E25B00"/>
</svg>
