<svg width="136" height="55" viewBox="0 0 136 55" fill="none" xmlns="http://www.w3.org/2000/svg">
<g clip-path="url(#clip0_1_41)">
<path d="M88.1472 2.78199e-05C84.8152 0.00608103 81.5588 0.983356 78.7916 2.80834C76.0228 4.63333 73.8672 7.22411 72.5956 10.2534C71.3244 13.2827 70.996 16.6145 71.6488 19.8278C72.3032 23.0412 73.9108 25.9918 76.2692 28.307C78.6284 30.622 81.632 32.1975 84.9012 32.8346C88.1704 33.4718 91.5588 33.1418 94.6368 31.8864C97.7148 30.6309 100.345 28.5063 102.198 25.7812C104.048 23.0561 105.036 19.8526 105.036 16.5756C105.036 14.3963 104.598 12.2383 103.749 10.2253C102.901 8.2123 101.656 6.38373 100.087 4.84414C98.5192 3.30457 96.6576 2.08427 94.6084 1.25304C92.5596 0.421822 90.3644 -0.00396473 88.1472 2.78199e-05ZM88.1472 21.6889C87.1196 21.6889 86.1136 21.389 85.258 20.8273C84.4032 20.2653 83.7364 19.4668 83.3436 18.5323C82.9496 17.598 82.8472 16.5699 83.0472 15.5779C83.2488 14.5861 83.744 13.6749 84.47 12.9597C85.1976 12.2447 86.124 11.7577 87.1336 11.5604C88.142 11.3631 89.188 11.4644 90.1372 11.8515C91.088 12.2385 91.9 12.8938 92.4712 13.7347C93.0432 14.5757 93.3488 15.5642 93.3488 16.5756C93.3552 17.2489 93.2256 17.9169 92.9664 18.5404C92.7072 19.1638 92.3248 19.7302 91.8396 20.2063C91.356 20.6825 90.78 21.0589 90.146 21.3135C89.5124 21.5681 88.8324 21.6957 88.1472 21.6889Z" fill="#2FD73A"/>
<path d="M51.8892 32.1581H69.4048V21.4757H58.2324L69.9296 0.991699H39.635V11.6641H50.9616L39.5619 32.1581H51.8892Z" fill="#2FD73A"/>
<path d="M105.95 0.991699V11.6641H115.105V32.1581H126.844V11.6641H135.999V0.991699H105.95Z" fill="#2FD73A"/>
<path d="M13.4896 1.01385L0 32.16H18.5358L21.9242 22.4192L25.3114 32.16H37.8747L24.3337 1.01385H13.4896ZM15.1062 22.4293L18.5358 12.6786L21.9242 22.409L15.1062 22.4293Z" fill="#2FD73A"/>
<path d="M33.0443 50.6269H35.9067V52.2468C35.2023 52.7527 34.3478 53.016 33.4766 52.9963C32.9698 53.0377 32.4604 52.9715 31.9831 52.8028C31.5046 52.6342 31.0684 52.3669 30.7053 52.0184C30.3409 51.6699 30.0574 51.2492 29.8727 50.7835C29.6879 50.3182 29.6071 49.8196 29.6353 49.321C29.5994 48.8328 29.6699 48.343 29.8418 47.8842C30.015 47.4253 30.2845 47.0078 30.636 46.6605C30.9863 46.3132 31.4071 46.0439 31.8728 45.8704C32.3385 45.697 32.8351 45.6235 33.3329 45.6553C33.8641 45.6276 34.3953 45.7139 34.8892 45.9078C35.3832 46.1021 35.8284 46.3992 36.1953 46.7793L37.4514 45.5641C36.9305 44.9804 36.2787 44.5223 35.5487 44.2257C34.8186 43.929 34.0283 43.8013 33.2392 43.8531C32.4823 43.8121 31.724 43.925 31.0132 44.1851C30.3024 44.4448 29.6532 44.8463 29.1066 45.3638C28.5601 45.8813 28.129 46.5039 27.8378 47.1928C27.5478 47.8821 27.4041 48.6228 27.4182 49.3684C27.431 50.1143 27.6017 50.8493 27.916 51.5278C28.2316 52.2063 28.6858 52.8137 29.2503 53.3115C29.8149 53.8097 30.4782 54.1883 31.1979 54.4231C31.9177 54.658 32.6799 54.7443 33.4355 54.6773C34.2246 54.6933 35.0085 54.5524 35.7411 54.2638C36.4737 53.9751 37.1396 53.5439 37.699 52.9963V48.936H33.0443V50.6269Z" fill="#2FD73A"/>
<path d="M55.4828 47.2968C55.4828 45.5958 54.5976 43.996 51.2296 43.996H46.9968V54.5973H48.8612V50.7092H51.1372L54.0816 54.5973H56.3476L53.1144 50.3547C53.7984 50.1768 54.404 49.7794 54.8324 49.2254C55.2608 48.6718 55.4904 47.9929 55.4828 47.2968ZM51.2808 48.9777H48.8612V45.717H51.1884C53.0116 45.717 53.5468 46.3754 53.5468 47.2968C53.5468 48.2181 52.7024 48.9777 51.2808 48.9777Z" fill="#2FD73A"/>
<path d="M69.7859 43.8731C68.6939 43.8711 67.6251 44.1879 66.7155 44.7836C65.8071 45.379 65.0979 46.2265 64.6783 47.2189C64.2599 48.2109 64.1495 49.3029 64.3627 50.3567C64.5743 51.4105 65.1004 52.3784 65.8728 53.138C66.6464 53.8976 67.6303 54.4146 68.7015 54.6238C69.7743 54.833 70.8843 54.7246 71.8927 54.3127C72.9023 53.9004 73.7647 53.2034 74.3703 52.3094C74.9759 51.4149 75.2976 50.3643 75.2952 49.29C75.3056 48.5762 75.1695 47.8672 74.8963 47.206C74.6227 46.5444 74.2175 45.9434 73.7031 45.4384C73.1899 44.9334 72.5791 44.5347 71.9067 44.2661C71.2331 43.9972 70.5119 43.8635 69.7859 43.8731ZM69.7859 52.9862C69.0403 53.0184 68.3027 52.8305 67.6663 52.4467C67.0311 52.0633 66.5259 51.5008 66.2179 50.8328C65.9099 50.1648 65.8111 49.4213 65.9367 48.6979C66.0611 47.9744 66.4039 47.3048 66.9195 46.7741C67.4355 46.2437 68.0999 45.8772 68.8299 45.7218C69.5587 45.5665 70.3183 45.6291 71.0111 45.9021C71.7039 46.1747 72.2979 46.6452 72.7163 47.2526C73.1347 47.86 73.3592 48.577 73.3604 49.3105C73.3836 49.7846 73.3091 50.2587 73.1395 50.7035C72.9703 51.1484 72.71 51.5542 72.3752 51.8967C72.0416 52.2391 71.6387 52.5101 71.1935 52.694C70.7483 52.8783 70.2695 52.9706 69.7859 52.9658V52.9862Z" fill="#2FD73A"/>
<path d="M91.8656 49.8284C91.8656 51.6606 91.0416 52.9975 89.2392 52.9975C87.4376 52.9975 86.356 51.7016 86.356 49.7674V43.996H84.492V49.9902C84.4548 50.6136 84.552 51.2379 84.7768 51.8216C85.0024 52.4058 85.3504 52.9365 85.798 53.3789C86.2472 53.8217 86.7848 54.1662 87.3776 54.3902C87.9716 54.6138 88.6052 54.7121 89.2392 54.6784C91.474 54.6784 93.7092 53.3821 93.7092 50.0813V44.006H91.8656V49.8284Z" fill="#2FD73A"/>
<path d="M107.866 43.996H103.5V54.5973H105.373V50.9621H107.856C111.213 50.9621 112.355 49.2206 112.355 47.479C112.355 45.7375 111.501 43.996 107.866 43.996ZM107.866 49.2511H105.415V45.707H107.97C109.802 45.707 110.45 46.4461 110.45 47.4586C110.45 48.4714 109.638 49.2511 107.825 49.2511H107.866Z" fill="#2FD73A"/>
</g>
<defs>
<clipPath id="clip0_1_41">
<rect width="136" height="55" fill="white"/>
</clipPath>
</defs>
</svg>
