<svg width="187" height="60" viewBox="0 0 187 60" fill="none" xmlns="http://www.w3.org/2000/svg">
<path d="M52.5825 7.43451H6.92041V53.0717H52.5825V7.43451Z" fill="#ED1A3A"/>
<path d="M45.208 11.9809C44.1586 11.9809 43.364 12.6767 42.968 13.5128L37.2186 22.9731C36.8199 23.8481 36.5289 24.831 36.5289 25.4816C36.5289 26.0631 36.6087 26.5768 36.8219 27.0502L43.0413 41.8999H18.89C18.0206 41.8999 17.3031 41.0271 17.3031 40.2214V14.642C17.1204 11.1451 12.0917 11.1469 11.981 14.7518L12.0908 41.8999C12.0908 44.8513 14.3738 47.2159 17.3031 47.2159H50.2311L42.2051 26.6901C41.9836 25.926 41.8849 25.2329 42.4248 24.322L47.7348 15.6918C47.8096 15.5118 47.9179 14.7508 47.9179 14.5321C47.8127 12.965 46.584 11.9117 45.208 11.9809ZM32.1711 11.9931C30.8795 12.0017 29.5893 12.8935 29.5893 14.642V32.9461C29.5893 35.6041 26.0127 35.3854 26.0127 32.9461V14.642C26.0127 11.1451 20.837 11.1451 20.837 14.642V33.0926C20.837 37.3122 23.9895 40.1177 27.7522 40.1177C31.6174 40.1177 34.7589 37.3122 34.7589 33.0926V14.642C34.7589 12.8589 33.4627 11.9844 32.1711 11.9931Z" fill="white"/>
<path d="M61.5283 12.7976V24.8721C61.5283 27.89 61.221 29.5679 58.7623 29.5679C58.3027 29.5679 57.9954 29.5679 57.5358 29.4018V34.5987C58.455 34.9365 59.0697 34.9365 59.8394 34.9365C66.7501 34.9365 67.0575 29.7368 67.0575 26.7161V17.9973H71.05V34.5987H76.5764V12.7976H61.5283Z" fill="black"/>
<path d="M78.4203 12.7976L85.9457 28.5628L83.1825 34.5987H89.1713L98.0784 12.7976H92.0896L88.864 22.0203L85.0237 12.7976H78.4203Z" fill="black"/>
<path d="M99.7673 34.5987H105.297V25.2071L110.978 34.5987H118.041L110.211 23.3631L117.889 12.7976H111.285L105.297 22.0203V12.7976H99.7673V34.5987Z" fill="black"/>
<path d="M127.103 35.2715C134.474 35.2715 137.851 29.5679 137.851 23.6981C137.851 17.9973 134.474 12.2937 127.103 12.2937C119.885 12.2937 116.507 17.9973 116.507 23.6981C116.507 29.5679 119.885 35.2715 127.103 35.2715ZM127.103 30.0718C124.645 30.0718 122.189 27.89 122.189 23.6981C122.189 19.5063 124.645 17.4934 127.103 17.4934C129.714 17.4934 132.17 19.5063 132.17 23.6981C132.17 27.89 129.714 30.0718 127.103 30.0718Z" fill="black"/>
<path d="M140.617 12.7976V34.5987H145.991L153.669 21.5191V34.5987H159.046V12.7976H153.669L145.991 25.8799V12.7976H140.617ZM149.984 11.6236C152.288 11.6236 154.591 10.7847 155.668 8.26793L152.443 6.92786C151.98 8.60571 150.599 8.77184 149.984 8.77184C149.524 8.77184 147.988 8.60571 147.68 6.92786L144.458 8.26793C145.377 10.7847 147.835 11.6236 149.984 11.6236Z" fill="black"/>
<path d="M164.883 12.7976V24.8721C164.883 27.89 164.573 29.5679 162.117 29.5679C161.657 29.5679 161.35 29.5679 160.887 29.4018V34.5987C161.809 34.9365 162.424 34.9365 163.191 34.9365C170.102 34.9365 170.409 29.7368 170.409 26.7161V17.9973H174.402V34.5987H179.931V12.7976H164.883Z" fill="black"/>
<path d="M57.58 46.8337H58.358V42.7886H62.9015V46.8337H63.6795V38.9041H62.9015V42.1518H58.358V38.9041H57.58V46.8337Z" fill="black"/>
<path d="M65.6592 46.8337H69.9203V46.1969H66.4372V42.7111H69.7818V42.0743H66.4372V39.5436H69.9203V38.9041H65.6592V46.8337Z" fill="black"/>
<path d="M75.0481 46.8337H75.8178V45.7428H76.1417C78.7056 45.7428 79.766 44.2256 79.766 42.6363C79.766 40.7757 78.39 39.5436 76.1417 39.5436H75.8178V38.5912H75.0481V39.5436H74.7352C72.4731 39.5436 71.0999 40.7757 71.0999 42.6363C71.0999 44.2256 72.1603 45.7428 74.7352 45.7428H75.0481V46.8337ZM75.8178 40.1804C78.39 40.2137 78.9548 41.4153 78.9548 42.6363C78.9548 44.5412 77.6895 45.0368 75.8178 45.1033V40.1804ZM75.0481 45.1033C73.1764 45.0368 71.9111 44.5412 71.9111 42.6363C71.9111 41.4153 72.4732 40.2137 75.0481 40.1804V45.1033Z" fill="black"/>
<path d="M82.5762 46.8337H83.3238V39.5436H85.4336V38.9041H80.4692V39.5436H82.5762V46.8337Z" fill="black"/>
<path d="M86.3529 46.8337H87.2278L89.3376 43.3507H90.0076V46.8337H90.7884V38.9041H88.9583C86.5578 38.9041 86.2117 40.4961 86.2117 41.1993C86.2117 42.5394 87.261 43.3507 88.4959 43.3064L86.3529 46.8337ZM90.0076 42.7111H88.8835C88.2467 42.7111 86.9814 42.6363 86.9814 41.1218C86.9814 39.6516 88.3214 39.5436 88.9583 39.5436H90.0076V42.7111Z" fill="black"/>
<path d="M92.7791 46.8337H93.5571V42.7886H98.1006V46.8337H98.8786V38.9041H98.1006V42.1518H93.5571V38.9041H92.7791V46.8337Z" fill="black"/>
<path d="M100.014 46.8337H100.795L101.885 44.2588H105.227L106.321 46.8337H107.099L103.541 38.6992L100.014 46.8337ZM102.168 43.6331L103.541 40.3881L104.948 43.6331H102.168Z" fill="black"/>
<path d="M107.999 46.8337H108.874L110.984 43.3507H111.654V46.8337H112.432V38.9041H110.604C108.204 38.9041 107.858 40.4961 107.858 41.1993C107.858 42.5394 108.907 43.3507 110.139 43.3064L107.999 46.8337ZM111.654 42.7111H110.53C109.89 42.7111 108.625 42.6363 108.625 41.1218C108.625 39.6516 109.967 39.5436 110.604 39.5436H111.654V42.7111Z" fill="black"/>
<path d="M117.053 46.8337H117.831V42.9935L121.388 46.8337H122.405L118.564 42.7443L122.341 38.9041H121.388L117.831 42.6031V38.9041H117.053V46.8337Z" fill="black"/>
<path d="M127.424 47.0829C129.783 47.0829 131.719 45.3857 131.719 42.8855C131.719 40.3881 129.783 38.6992 127.424 38.6992C125.099 38.6992 123.163 40.3881 123.163 42.8855C123.163 45.3857 125.099 47.0829 127.424 47.0829ZM127.424 46.4129C125.489 46.4129 123.974 44.9621 123.974 42.8855C123.974 40.8089 125.489 39.3277 127.424 39.3277C129.362 39.3277 130.907 40.8089 130.907 42.8855C130.907 44.9621 129.362 46.4129 127.424 46.4129Z" fill="black"/>
<path d="M132.79 46.8337H133.538L134.271 40.9806L137.192 47.1909L140.08 40.9806L140.861 46.8337H141.562L140.471 38.5912L137.192 45.6764L133.881 38.5912L132.79 46.8337Z" fill="black"/>
<path d="M143.023 38.9041V46.8337H143.801V39.5436H148.345V46.8337H149.123V38.9041H143.023Z" fill="black"/>
<path d="M150.261 46.8337H151.039L152.13 44.2588H155.475L156.565 46.8337H157.343L153.786 38.6992L150.261 46.8337ZM152.412 43.6331L153.786 40.3881L155.192 43.6331H152.412Z" fill="black"/>
<path d="M158.448 46.8337H159.226V42.7886H163.77V46.8337H164.55V38.9041H163.77V42.1518H159.226V38.9041H158.448V46.8337Z" fill="black"/>
<path d="M166.527 38.9041V47.1909L171.959 40.5598V46.8337H172.726V38.5912L167.308 45.178V38.9041H166.527Z" fill="black"/>
<path d="M174.479 46.8337H175.354L177.464 43.3507H178.134V46.8337H178.915V38.9041H177.087C174.684 38.9041 174.338 40.4961 174.338 41.1993C174.338 42.5394 175.387 43.3507 176.622 43.3064L174.479 46.8337ZM178.134 42.7111H177.01C176.373 42.7111 175.108 42.6363 175.108 41.1218C175.108 39.6516 176.448 39.5436 177.087 39.5436H178.134V42.7111Z" fill="black"/>
</svg>
