<svg width="40" height="40" viewBox="0 0 40 40" fill="none" xmlns="http://www.w3.org/2000/svg">
<path d="M20 0C31.0457 0 40 8.95431 40 20C40 31.0457 31.0457 40 20 40C8.95431 40 0 31.0457 0 20C0 8.95431 8.95431 0 20 0ZM20 30.6752C25.8957 30.6752 30.6752 25.8957 30.6752 20C30.6752 14.1043 25.8957 9.32482 20 9.32482C14.1043 9.32482 9.32482 14.1043 9.32482 20C9.32482 25.8957 14.1043 30.6752 20 30.6752Z" fill="#FFE3A1"/>
<path d="M20 0C24.2236 0 28.3388 1.3371 31.7557 3.81966C35.1727 6.30222 37.716 9.80279 39.0211 13.8197C40.3263 17.8365 40.3263 22.1635 39.0211 26.1803C37.716 30.1972 35.1727 33.6978 31.7557 36.1803C28.3388 38.6629 24.2236 40 20 40C15.7764 40 11.6612 38.6629 8.24429 36.1803C4.82734 33.6978 2.28403 30.1972 0.978869 26.1803C-0.32629 22.1635 -0.32629 17.8365 0.978871 13.8197L9.8473 16.7012C9.15066 18.8452 9.15066 21.1548 9.8473 23.2988C10.5439 25.4429 11.9015 27.3113 13.7253 28.6364C15.5491 29.9615 17.7456 30.6752 20 30.6752C22.2544 30.6752 24.4509 29.9615 26.2747 28.6364C28.0985 27.3113 29.4561 25.4429 30.1527 23.2988C30.8493 21.1548 30.8493 18.8452 30.1527 16.7012C29.4561 14.5571 28.0985 12.6887 26.2747 11.3636C24.4509 10.0385 22.2544 9.32482 20 9.32482L20 0Z" fill="#FBBB20"/>
</svg>
